<svg width="1440" height="1121" viewBox="0 0 1440 1121" fill="none" xmlns="http://www.w3.org/2000/svg">
<g opacity="0.5">
<g filter="url(#filter0_f_7493_2666)">
<path fill-rule="evenodd" clip-rule="evenodd" d="M50.9698 567.544C123.256 513.338 220.528 592.394 306.072 621.477C394.461 651.527 507.302 653.716 549.451 737.016C591.963 821.032 558.193 930.361 499.703 1004.15C451.705 1064.7 353.199 1030.22 286.34 1068.95C204.605 1116.3 174.38 1253.43 80.1223 1247.23C-14.6671 1241 -90.515 1137.5 -103.132 1043.35C-114.475 958.714 -1.75637 913.821 24.5548 832.583C52.9932 744.777 -22.8716 622.917 50.9698 567.544Z" fill="#00B4D8"/>
</g>
<g filter="url(#filter1_f_7493_2666)">
<path fill-rule="evenodd" clip-rule="evenodd" d="M415.484 1057.02C466.185 1020.02 534.843 995.925 594.449 1015.6C652.832 1034.86 659.543 1118.04 709.399 1154.02C780.39 1205.24 924.941 1178.93 940.257 1265.12C955.213 1349.29 807.556 1367.57 759.964 1438.59C719.367 1499.17 752.081 1603.14 689.101 1639.9C626.977 1676.17 547.487 1631.03 482.266 1600.69C429.273 1576.04 388.562 1533.73 356.233 1485.04C328.268 1442.92 315.53 1394.34 311.782 1343.92C308.204 1295.79 318.985 1250.05 335.391 1204.66C354.901 1150.68 369.124 1090.85 415.484 1057.02Z" fill="#01D4D4"/>
</g>
<g filter="url(#filter2_f_7493_2666)">
<path fill-rule="evenodd" clip-rule="evenodd" d="M1041.88 836.919C1110.73 810.667 1177.49 870.727 1244.54 901.259C1302.9 927.831 1364.3 947.653 1400.83 1000.35C1444.75 1063.71 1476.68 1138.76 1461.6 1214.36C1444.41 1300.48 1394.17 1381 1316.63 1422.23C1235.94 1465.14 1139.21 1462.08 1053.04 1431.61C966.267 1400.93 878.851 1346.01 852.061 1257.96C827.032 1175.69 893.026 1100.22 928.368 1021.83C959.269 953.285 971.631 863.708 1041.88 836.919Z" fill="#29ABE2"/>
</g>
<g filter="url(#filter3_f_7493_2666)">
<path fill-rule="evenodd" clip-rule="evenodd" d="M830.173 660.901C867.857 662.082 900.919 641.005 937.518 631.948C991.31 618.638 1045.05 574.844 1096.69 594.954C1146.24 614.253 1172.09 674.571 1181.4 726.93C1190.13 775.965 1158.22 821.19 1145.51 869.346C1135.09 908.832 1130.78 948.5 1113.2 985.358C1093.11 1027.46 1074.07 1072.34 1035.88 1099.12C995.113 1127.71 943.99 1144.08 894.483 1138.72C845.319 1133.41 797.161 1108.25 765.903 1069.94C736.723 1034.16 747.534 981.457 731.026 938.345C716.087 899.335 690.71 867.461 673.752 829.285C642.858 759.737 538.286 676.809 590.081 621.053C646.252 560.586 747.682 658.314 830.173 660.901Z" fill="#9747FF"/>
</g>
</g>
<defs>
<filter id="filter0_f_7493_2666" x="-682.865" y="-29.9284" width="1830.33" height="1856.3" filterUnits="userSpaceOnUse" color-interpolation-filters="sRGB">
<feFlood flood-opacity="0" result="BackgroundImageFix"/>
<feBlend mode="normal" in="SourceGraphic" in2="BackgroundImageFix" result="shape"/>
<feGaussianBlur stdDeviation="289.467" result="effect1_foregroundBlur_7493_2666"/>
</filter>
<filter id="filter1_f_7493_2666" x="-267.838" y="429.631" width="1788.09" height="1802.68" filterUnits="userSpaceOnUse" color-interpolation-filters="sRGB">
<feFlood flood-opacity="0" result="BackgroundImageFix"/>
<feBlend mode="normal" in="SourceGraphic" in2="BackgroundImageFix" result="shape"/>
<feGaussianBlur stdDeviation="289.467" result="effect1_foregroundBlur_7493_2666"/>
</filter>
<filter id="filter2_f_7493_2666" x="267.596" y="251.51" width="1776.72" height="1781.91" filterUnits="userSpaceOnUse" color-interpolation-filters="sRGB">
<feFlood flood-opacity="0" result="BackgroundImageFix"/>
<feBlend mode="normal" in="SourceGraphic" in2="BackgroundImageFix" result="shape"/>
<feGaussianBlur stdDeviation="289.467" result="effect1_foregroundBlur_7493_2666"/>
</filter>
<filter id="filter3_f_7493_2666" x="-3.02142" y="10.8214" width="1764.85" height="1707.84" filterUnits="userSpaceOnUse" color-interpolation-filters="sRGB">
<feFlood flood-opacity="0" result="BackgroundImageFix"/>
<feBlend mode="normal" in="SourceGraphic" in2="BackgroundImageFix" result="shape"/>
<feGaussianBlur stdDeviation="289.467" result="effect1_foregroundBlur_7493_2666"/>
</filter>
</defs>
</svg>
